<?xml version="1.0" encoding="UTF-8" standalone="no"?>
<svg width="553px" height="496px" viewBox="0 0 553 496" version="1.1" xmlns="http://www.w3.org/2000/svg" xmlns:xlink="http://www.w3.org/1999/xlink" xmlns:sketch="http://www.bohemiancoding.com/sketch/ns">
    <!-- Generator: Sketch 3.4.4 (17249) - http://www.bohemiancoding.com/sketch -->
    <title>Path 1</title>
    <desc>Created with Sketch.</desc>
    <defs></defs>
    <g id="Page-1" stroke="none" stroke-width="1" fill="none" fill-rule="evenodd" sketch:type="MSPage">
        <g id="/index.php" sketch:type="MSArtboardGroup" transform="translate(-444.000000, -241.000000)" fill="#FFDB00">
            <path d="M444.028219,737 L507.699936,737 C507.699936,737 503.734036,281.270395 593.573472,280.826486 C683.412908,280.382576 683.412906,709.756147 683.412906,709.756147 C683.412906,709.756147 715.826995,709.756155 746.265681,709.756147 C746.265678,624.579839 764.983451,280.382576 838.811671,280.382576 C912.63989,280.382577 924.9301,733.174545 924.9301,733.174545 C924.9301,733.174545 972.323944,733.174546 996.34639,733.174545 C996.346385,718.167193 995.130112,688.692112 992.164436,651.318895 C980.637654,506.059287 934.496999,239.161127 838.81166,241.009551 C765.724817,242.421423 736.757549,360.046916 715.826999,412.036538 C692.217119,360.046916 683.412908,241.009551 603.200214,241.009551 C437.974513,241.009551 444.028219,737 444.028219,737 Z" id="Path-1" sketch:type="MSShapeGroup" transform="translate(720.173195, 489.000000) rotate(-180.000000) translate(-720.173195, -489.000000) "></path>
        </g>
    </g>
</svg>